<mxfile host="app.diagrams.net" modified="2022-02-28T01:23:01.000Z" agent="5.0 (Macintosh; Intel Mac OS X 10_15_7) AppleWebKit/537.36 (KHTML, like Gecko) Chrome/98.0.4758.102 Safari/537.36 Edg/98.0.1108.55" etag="rrgKYQOQA_Y5XpYeM1V1" version="16.2.1" type="github">
  <diagram id="C5RBs43oDa-KdzZeNtuy" name="Page-1">
    <mxGraphModel dx="459" dy="522" grid="1" gridSize="10" guides="1" tooltips="1" connect="1" arrows="1" fold="1" page="1" pageScale="1" pageWidth="827" pageHeight="1169" math="0" shadow="0">
      <root>
        <mxCell id="WIyWlLk6GJQsqaUBKTNV-0" />
        <mxCell id="WIyWlLk6GJQsqaUBKTNV-1" parent="WIyWlLk6GJQsqaUBKTNV-0" />
        <mxCell id="_KN6zS2j0yNZ2PSaBI0Q-10" value="" style="edgeStyle=orthogonalEdgeStyle;rounded=0;orthogonalLoop=1;jettySize=auto;html=1;" edge="1" parent="WIyWlLk6GJQsqaUBKTNV-1" source="_KN6zS2j0yNZ2PSaBI0Q-6" target="_KN6zS2j0yNZ2PSaBI0Q-9">
          <mxGeometry relative="1" as="geometry" />
        </mxCell>
        <mxCell id="_KN6zS2j0yNZ2PSaBI0Q-6" value="组件渲染开始" style="shape=parallelogram;perimeter=parallelogramPerimeter;whiteSpace=wrap;html=1;fixedSize=1;" vertex="1" parent="WIyWlLk6GJQsqaUBKTNV-1">
          <mxGeometry x="200" y="120" width="120" height="40" as="geometry" />
        </mxCell>
        <mxCell id="_KN6zS2j0yNZ2PSaBI0Q-12" value="" style="edgeStyle=orthogonalEdgeStyle;rounded=0;orthogonalLoop=1;jettySize=auto;html=1;" edge="1" parent="WIyWlLk6GJQsqaUBKTNV-1" source="_KN6zS2j0yNZ2PSaBI0Q-9" target="_KN6zS2j0yNZ2PSaBI0Q-11">
          <mxGeometry relative="1" as="geometry" />
        </mxCell>
        <mxCell id="_KN6zS2j0yNZ2PSaBI0Q-9" value="getDefaultProps" style="whiteSpace=wrap;html=1;" vertex="1" parent="WIyWlLk6GJQsqaUBKTNV-1">
          <mxGeometry x="200" y="180" width="120" height="30" as="geometry" />
        </mxCell>
        <mxCell id="_KN6zS2j0yNZ2PSaBI0Q-14" value="" style="edgeStyle=orthogonalEdgeStyle;rounded=0;orthogonalLoop=1;jettySize=auto;html=1;" edge="1" parent="WIyWlLk6GJQsqaUBKTNV-1" source="_KN6zS2j0yNZ2PSaBI0Q-11" target="_KN6zS2j0yNZ2PSaBI0Q-13">
          <mxGeometry relative="1" as="geometry" />
        </mxCell>
        <mxCell id="_KN6zS2j0yNZ2PSaBI0Q-11" value="getInitialState" style="whiteSpace=wrap;html=1;" vertex="1" parent="WIyWlLk6GJQsqaUBKTNV-1">
          <mxGeometry x="200" y="230" width="120" height="30" as="geometry" />
        </mxCell>
        <mxCell id="_KN6zS2j0yNZ2PSaBI0Q-16" value="" style="edgeStyle=orthogonalEdgeStyle;rounded=0;orthogonalLoop=1;jettySize=auto;html=1;" edge="1" parent="WIyWlLk6GJQsqaUBKTNV-1" source="_KN6zS2j0yNZ2PSaBI0Q-13" target="_KN6zS2j0yNZ2PSaBI0Q-15">
          <mxGeometry relative="1" as="geometry" />
        </mxCell>
        <mxCell id="_KN6zS2j0yNZ2PSaBI0Q-13" value="componentWillMount" style="whiteSpace=wrap;html=1;" vertex="1" parent="WIyWlLk6GJQsqaUBKTNV-1">
          <mxGeometry x="190" y="280" width="140" height="30" as="geometry" />
        </mxCell>
        <mxCell id="_KN6zS2j0yNZ2PSaBI0Q-18" value="" style="edgeStyle=orthogonalEdgeStyle;rounded=0;orthogonalLoop=1;jettySize=auto;html=1;" edge="1" parent="WIyWlLk6GJQsqaUBKTNV-1" source="_KN6zS2j0yNZ2PSaBI0Q-15" target="_KN6zS2j0yNZ2PSaBI0Q-17">
          <mxGeometry relative="1" as="geometry" />
        </mxCell>
        <mxCell id="_KN6zS2j0yNZ2PSaBI0Q-15" value="Render" style="whiteSpace=wrap;html=1;" vertex="1" parent="WIyWlLk6GJQsqaUBKTNV-1">
          <mxGeometry x="200" y="330" width="120" height="30" as="geometry" />
        </mxCell>
        <mxCell id="_KN6zS2j0yNZ2PSaBI0Q-17" value="componentDidMount" style="whiteSpace=wrap;html=1;" vertex="1" parent="WIyWlLk6GJQsqaUBKTNV-1">
          <mxGeometry x="190" y="380" width="140" height="30" as="geometry" />
        </mxCell>
      </root>
    </mxGraphModel>
  </diagram>
</mxfile>
